<mxfile host="app.diagrams.net" agent="Mozilla/5.0 (Windows NT 10.0; Win64; x64) AppleWebKit/537.36 (KHTML, like Gecko) Chrome/134.0.0.0 Safari/537.36" version="26.1.0">
  <diagram name="Page-1" id="vm4-V93XWywvATGFtpYt">
    <mxGraphModel dx="1439" dy="906" grid="1" gridSize="10" guides="1" tooltips="1" connect="1" arrows="1" fold="1" page="1" pageScale="1" pageWidth="850" pageHeight="1100" math="0" shadow="0">
      <root>
        <mxCell id="0" />
        <mxCell id="1" parent="0" />
        <mxCell id="h7OzAzot4saPvXMIuNYr-1" value="User" style="whiteSpace=wrap;strokeWidth=2;" vertex="1" parent="1">
          <mxGeometry x="50" y="307" width="92" height="54" as="geometry" />
        </mxCell>
        <mxCell id="h7OzAzot4saPvXMIuNYr-2" value="User Authentication" style="ellipse;strokeWidth=2;whiteSpace=wrap;" vertex="1" parent="1">
          <mxGeometry x="388.5" y="120" width="220" height="90" as="geometry" />
        </mxCell>
        <mxCell id="h7OzAzot4saPvXMIuNYr-3" value="Browse Footwear" style="ellipse;strokeWidth=2;whiteSpace=wrap;" vertex="1" parent="1">
          <mxGeometry x="398" y="310" width="201" height="51" as="geometry" />
        </mxCell>
        <mxCell id="h7OzAzot4saPvXMIuNYr-4" value="Order Placement" style="ellipse;whiteSpace=wrap;" vertex="1" parent="1">
          <mxGeometry x="393.5" y="380" width="210" height="83" as="geometry" />
        </mxCell>
        <mxCell id="h7OzAzot4saPvXMIuNYr-5" value="Order Tracking" style="ellipse;strokeWidth=2;whiteSpace=wrap;" vertex="1" parent="1">
          <mxGeometry x="438.5" y="600" width="120" height="61" as="geometry" />
        </mxCell>
        <mxCell id="h7OzAzot4saPvXMIuNYr-6" value="Admin" style="whiteSpace=wrap;strokeWidth=2;" vertex="1" parent="1">
          <mxGeometry x="43.5" y="527" width="105" height="54" as="geometry" />
        </mxCell>
        <mxCell id="h7OzAzot4saPvXMIuNYr-7" value="User Management" style="ellipse;strokeWidth=2;whiteSpace=wrap;" vertex="1" parent="1">
          <mxGeometry x="397" y="227" width="203" height="73" as="geometry" />
        </mxCell>
        <mxCell id="h7OzAzot4saPvXMIuNYr-8" value="Footwear Inventory Management" style="ellipse;strokeWidth=2;whiteSpace=wrap;" vertex="1" parent="1">
          <mxGeometry x="379" y="480" width="239" height="96" as="geometry" />
        </mxCell>
        <mxCell id="h7OzAzot4saPvXMIuNYr-9" value="Order Management" style="ellipse;strokeWidth=2;whiteSpace=wrap;" vertex="1" parent="1">
          <mxGeometry x="423" y="690" width="151" height="61" as="geometry" />
        </mxCell>
        <mxCell id="h7OzAzot4saPvXMIuNYr-10" value="Reports &amp; Analysis" style="ellipse;strokeWidth=2;whiteSpace=wrap;" vertex="1" parent="1">
          <mxGeometry x="425.5" y="780" width="146" height="80" as="geometry" />
        </mxCell>
        <mxCell id="h7OzAzot4saPvXMIuNYr-11" value="usersretailers" style="shape=cylinder3;boundedLbl=1;backgroundOutline=1;size=10;strokeWidth=2;whiteSpace=wrap;" vertex="1" parent="1">
          <mxGeometry x="804" y="200" width="112" height="74" as="geometry" />
        </mxCell>
        <mxCell id="h7OzAzot4saPvXMIuNYr-12" value="footwear_models" style="shape=cylinder3;boundedLbl=1;backgroundOutline=1;size=10;strokeWidth=2;whiteSpace=wrap;" vertex="1" parent="1">
          <mxGeometry x="790.5" y="340" width="139" height="78" as="geometry" />
        </mxCell>
        <mxCell id="h7OzAzot4saPvXMIuNYr-13" value="footwear_stock" style="shape=cylinder3;boundedLbl=1;backgroundOutline=1;size=10;strokeWidth=2;whiteSpace=wrap;" vertex="1" parent="1">
          <mxGeometry x="797.5" y="460" width="125" height="77" as="geometry" />
        </mxCell>
        <mxCell id="h7OzAzot4saPvXMIuNYr-14" value="orders" style="shape=cylinder3;boundedLbl=1;backgroundOutline=1;size=10;strokeWidth=2;whiteSpace=wrap;" vertex="1" parent="1">
          <mxGeometry x="830" y="640" width="60" height="63" as="geometry" />
        </mxCell>
        <mxCell id="h7OzAzot4saPvXMIuNYr-15" value="Login/Register" style="startArrow=none;endArrow=block;exitX=0.6;exitY=0;entryX=0;entryY=0.5;rounded=0;edgeStyle=entityRelationEdgeStyle;" edge="1" parent="1" source="h7OzAzot4saPvXMIuNYr-1" target="h7OzAzot4saPvXMIuNYr-2">
          <mxGeometry relative="1" as="geometry" />
        </mxCell>
        <mxCell id="h7OzAzot4saPvXMIuNYr-16" value="Browse &amp; Search" style="startArrow=none;endArrow=block;exitX=0.99;exitY=0.03;entryX=0;entryY=0.5;rounded=0;edgeStyle=entityRelationEdgeStyle;" edge="1" parent="1" source="h7OzAzot4saPvXMIuNYr-1" target="h7OzAzot4saPvXMIuNYr-3">
          <mxGeometry x="-0.3859" y="-5" relative="1" as="geometry">
            <mxPoint as="offset" />
          </mxGeometry>
        </mxCell>
        <mxCell id="h7OzAzot4saPvXMIuNYr-17" value="Add to Cart &amp; Order" style="startArrow=none;endArrow=block;exitX=0.99;exitY=0.97;entryX=0;entryY=0.5;rounded=0;edgeStyle=entityRelationEdgeStyle;" edge="1" parent="1" source="h7OzAzot4saPvXMIuNYr-1" target="h7OzAzot4saPvXMIuNYr-4">
          <mxGeometry x="0.4262" y="-2" relative="1" as="geometry">
            <mxPoint as="offset" />
          </mxGeometry>
        </mxCell>
        <mxCell id="h7OzAzot4saPvXMIuNYr-18" value="Track Order" style="startArrow=none;endArrow=block;exitX=0.59;exitY=1;entryX=0;entryY=0.5;rounded=0;edgeStyle=entityRelationEdgeStyle;" edge="1" parent="1" source="h7OzAzot4saPvXMIuNYr-1" target="h7OzAzot4saPvXMIuNYr-5">
          <mxGeometry relative="1" as="geometry" />
        </mxCell>
        <mxCell id="h7OzAzot4saPvXMIuNYr-19" value="Manage Users" style="startArrow=none;endArrow=block;exitX=0.55;exitY=0;entryX=0;entryY=0.5;rounded=0;edgeStyle=entityRelationEdgeStyle;" edge="1" parent="1" source="h7OzAzot4saPvXMIuNYr-6" target="h7OzAzot4saPvXMIuNYr-7">
          <mxGeometry x="-0.5606" y="2" relative="1" as="geometry">
            <mxPoint as="offset" />
          </mxGeometry>
        </mxCell>
        <mxCell id="h7OzAzot4saPvXMIuNYr-20" value="Manage Inventory" style="startArrow=none;endArrow=block;exitX=0.72;exitY=0;entryX=0;entryY=0.5;rounded=0;edgeStyle=entityRelationEdgeStyle;" edge="1" parent="1" source="h7OzAzot4saPvXMIuNYr-6" target="h7OzAzot4saPvXMIuNYr-8">
          <mxGeometry relative="1" as="geometry" />
        </mxCell>
        <mxCell id="h7OzAzot4saPvXMIuNYr-21" value="Process Orders" style="startArrow=none;endArrow=block;exitX=0.72;exitY=1;entryX=0;entryY=0.5;rounded=0;edgeStyle=entityRelationEdgeStyle;" edge="1" parent="1" source="h7OzAzot4saPvXMIuNYr-6" target="h7OzAzot4saPvXMIuNYr-9">
          <mxGeometry relative="1" as="geometry" />
        </mxCell>
        <mxCell id="h7OzAzot4saPvXMIuNYr-22" value="Generate Reports" style="startArrow=none;endArrow=block;exitX=0.61;exitY=1;entryX=0;entryY=0.5;rounded=0;edgeStyle=entityRelationEdgeStyle;" edge="1" parent="1" source="h7OzAzot4saPvXMIuNYr-6" target="h7OzAzot4saPvXMIuNYr-10">
          <mxGeometry relative="1" as="geometry" />
        </mxCell>
        <mxCell id="h7OzAzot4saPvXMIuNYr-23" value="Validate User" style="startArrow=none;endArrow=block;exitX=1;exitY=0.5;entryX=0;entryY=0.08;rounded=0;edgeStyle=entityRelationEdgeStyle;" edge="1" parent="1" source="h7OzAzot4saPvXMIuNYr-2" target="h7OzAzot4saPvXMIuNYr-11">
          <mxGeometry relative="1" as="geometry" />
        </mxCell>
        <mxCell id="h7OzAzot4saPvXMIuNYr-24" value="Fetch Models" style="startArrow=none;endArrow=block;exitX=1;exitY=0.5;entryX=0;entryY=0.5;rounded=0;edgeStyle=entityRelationEdgeStyle;" edge="1" parent="1" source="h7OzAzot4saPvXMIuNYr-3" target="h7OzAzot4saPvXMIuNYr-12">
          <mxGeometry relative="1" as="geometry" />
        </mxCell>
        <mxCell id="h7OzAzot4saPvXMIuNYr-25" value="Check Stock" style="startArrow=none;endArrow=block;exitX=1;exitY=0.5;entryX=0;entryY=0.5;rounded=0;edgeStyle=entityRelationEdgeStyle;" edge="1" parent="1" source="h7OzAzot4saPvXMIuNYr-4" target="h7OzAzot4saPvXMIuNYr-13">
          <mxGeometry relative="1" as="geometry" />
        </mxCell>
        <mxCell id="h7OzAzot4saPvXMIuNYr-26" value="Create Order" style="startArrow=none;endArrow=block;exitX=0.83;exitY=1.01;entryX=0.03;entryY=0;rounded=0;edgeStyle=entityRelationEdgeStyle;" edge="1" parent="1" source="h7OzAzot4saPvXMIuNYr-4" target="h7OzAzot4saPvXMIuNYr-14">
          <mxGeometry x="0.1546" y="-6" relative="1" as="geometry">
            <mxPoint as="offset" />
          </mxGeometry>
        </mxCell>
        <mxCell id="h7OzAzot4saPvXMIuNYr-27" value="Get Order Status" style="startArrow=none;endArrow=block;exitX=1;exitY=0.5;entryX=0;entryY=0.25;rounded=0;edgeStyle=entityRelationEdgeStyle;" edge="1" parent="1" source="h7OzAzot4saPvXMIuNYr-5" target="h7OzAzot4saPvXMIuNYr-14">
          <mxGeometry relative="1" as="geometry" />
        </mxCell>
        <mxCell id="h7OzAzot4saPvXMIuNYr-28" value="Add/Edit Users" style="startArrow=none;endArrow=block;exitX=1;exitY=0.5;entryX=0;entryY=0.92;rounded=0;edgeStyle=entityRelationEdgeStyle;" edge="1" parent="1" source="h7OzAzot4saPvXMIuNYr-7" target="h7OzAzot4saPvXMIuNYr-11">
          <mxGeometry relative="1" as="geometry" />
        </mxCell>
        <mxCell id="h7OzAzot4saPvXMIuNYr-29" value="Update Stock" style="startArrow=none;endArrow=block;exitX=1;exitY=0.5;entryX=0.26;entryY=1;rounded=0;edgeStyle=entityRelationEdgeStyle;" edge="1" parent="1" source="h7OzAzot4saPvXMIuNYr-8" target="h7OzAzot4saPvXMIuNYr-13">
          <mxGeometry x="0.2487" y="-6" relative="1" as="geometry">
            <mxPoint as="offset" />
          </mxGeometry>
        </mxCell>
        <mxCell id="h7OzAzot4saPvXMIuNYr-30" value="Confirm &amp; Process Orders" style="startArrow=none;endArrow=block;exitX=1;exitY=0.5;entryX=0;entryY=0.75;rounded=0;edgeStyle=entityRelationEdgeStyle;" edge="1" parent="1" source="h7OzAzot4saPvXMIuNYr-9" target="h7OzAzot4saPvXMIuNYr-14">
          <mxGeometry relative="1" as="geometry" />
        </mxCell>
        <mxCell id="h7OzAzot4saPvXMIuNYr-31" value="Generate Reports" style="startArrow=none;endArrow=block;exitX=1;exitY=0.5;entryX=0.18;entryY=1;rounded=0;edgeStyle=entityRelationEdgeStyle;" edge="1" parent="1" source="h7OzAzot4saPvXMIuNYr-10" target="h7OzAzot4saPvXMIuNYr-14">
          <mxGeometry relative="1" as="geometry" />
        </mxCell>
      </root>
    </mxGraphModel>
  </diagram>
</mxfile>
